<svg enable-background="new 0 0 512 512" viewBox="0 0 512 512" xmlns="http://www.w3.org/2000/svg" xmlns:xlink="http://www.w3.org/1999/xlink"><linearGradient id="a" gradientTransform="matrix(.9879 .1552 -.1552 .9879 -526.6485 393.5376)" gradientUnits="userSpaceOnUse" x1="782.1644" x2="744.7106" y1="-285.3405" y2="-419.5774"><stop offset=".2032" stop-color="#efaf85"/><stop offset=".3389" stop-color="#eda37f"/><stop offset=".5822" stop-color="#e9846f"/><stop offset=".6898" stop-color="#e77467"/></linearGradient><path d="m317.6256 505.6651c-22.1703-81.0968-61.8768-107.7354-61.8768-107.7354l-50.3496-41.1581c-.1744-.0506-61.6739-6.9931-61.6739-6.9931s-63.1026 90.1608-71.1599 155.8867h245.0602z" fill="#196c72"/><path d="m143.7254 349.7784 101.1078 39.2336 30.4909-75.1078-81.7036-57.1197-30.5384 58.5428z" fill="#efaf85"/><path d="m162.8187 120.2605c34.4954-76.8985 82.4658-84.9368 147.6427-75.7206 73.729 10.4293 98.2811 47.2083 102.4859 87.5059 1.6514 15.8887-6.3609 43.3493-11.9791 59.3681-5.2051 14.8188-9.5876 21.8119-10.6647 27.1055-2.7785 13.7066 3.1603 38.6847 11.8842 43.8515 2.8326 1.6801 2.9093 9.4289 1.8387 10.6549-2.8709 3.2774-9.4639 3.455-14.9931 8.5906-9.4542 8.7967-9.5778 18.2419-15.8567 22.0207-5.6052 3.3762-25.0152-4.5378-31.9739 4.6335-9.0855 11.9668 21.5193 14.4818 24.4922 16.5144 6.2433 4.2809-11.1758 22.9293-19.436 34.3237-7.622 10.5184-44.258 11.8523-64.9388-.6413-44.9057-27.14-119.6194-62.9187-126.1457-109.6761-6.5137-46.77-1.1466-110.9973 7.6443-128.5308z" fill="#efaf85"/><path d="m396.4141 203.1679c1.3879-3.2936 2.9281-7.1043 4.554-11.754 5.6182-16.0188 13.6305-43.4794 11.9791-59.3681-4.2048-40.2976-28.7569-77.0766-102.4859-87.5059-65.1769-9.2161-113.1472-1.1779-147.6427 75.7206-3.8654 7.717-7.654 70.3436-9.4796 90.6719z" fill="url(#a)"/><path d="m120.4183 154.6511c12.3225-68.1179 55.4116-129.6773 110.6796-142.3836 106.4846-24.5078 174.3671 67.0825 198.6903 94.1244 16.6731 18.5528 10.5534 51.1171-18.2667 34.7302-100.1073-56.9928-139.4619-9.2539-139.4619-9.2539s-13.5356 39.138-15.8756 58.3008c-2.3376 19.1504-14.7141 39.2655-18.7056 35.0672-1.572-46.4173-16.435-43.2349-12.1541-59.4286.8482-3.198-2.8611 28.2867-12.6105 71.6522-3.243 20.6334-39.8853 72.3288-49.6317 77.8676-10.0767-28.1918-50.4603-117.6346-42.6638-160.6763z" fill="#393e49"/><path d="m377.8672 273.7529s4.2211 4.9255 13.0719 6.3135c2.9346-2.9887 16.9969-6.6531 11.4327-8.3812-2.4039-.7427-24.5046 2.0677-24.5046 2.0677z" fill="#d5c0bf"/><path d="m388.5189 180.1112c-1.4387-4.0995-34.1111-7.6534-39.5354-7.4914-10.9659.3239-26.0193 13.4653-24.5612 16.0155 1.4543 2.5339 16.5741-5.812 28.258-3.0835 4.5223 1.0666 26.9371 8.4441 30.1507 7.5902 3.2143-.8735 7.1298-8.9307 5.6879-13.0308z" fill="#202b53"/><path d="m360.283 206.4928c-9.9467-9.3652-31.1576-2.8898-31.1576-2.8898s19.6453.0475 29.9763 10.4449" style="fill:none;stroke:#202b53;stroke-width:3.4388;stroke-linecap:round;stroke-linejoin:round;stroke-miterlimit:10"/><path d="m258.9085 345.3701s-27.1244-18.5528-33.7396-27.5399c-6.6217-8.9945-6.9547-46.9513-6.9547-46.9513l13.6429 40.8283z" fill="#ecd3d3"/><path d="m235.8394 205.8801c-3.7951 20.7121-5.1414 36.4863-20.2204 31.821-15.0783-4.6647-29.7189-22.3921-26.9495-43.27 3.0485-22.9898 17.5049-30.7543 30.5253-30.1417 10.2264.4989 20.8716 18.5184 16.6446 41.5907z" fill="#efaf85"/><path d="m303.4806 184.0845c-.8735 5.57-5.0432 9.54-9.3079 8.8793-4.2654-.6797-7.0153-5.732-6.1457-11.3027.8768-5.5702 12.4878-29.0777 12.4878-29.0777s3.8426 25.9304 2.9658 31.5011z" fill="#d3ecfb" opacity=".5"/><path d="m300.5149 152.5835s-2.0807 4.1925-4.8976 10.4833c-1.3938 3.1506-2.8514 6.8948-4.1282 10.9157-1.2195 3.9915-2.2484 8.5046-1.4959 12.4806.2888 1.0764.454 1.6578 1.1083 2.7505.4702.7428 1.0256 1.4004 1.7593 1.8544 1.41.8799 3.3984.7752 5.1642.0825 1.7366-.6068 3.36-2.0767 3.9122-3.5856.7435-1.6546 1.0453-3.4771 1.2481-5.148.3688-3.3788.162-6.2881-.0032-8.292-.1489-2.0195-.3304-3.1693-.3304-3.1693s.3525 1.1082.813 3.0965c.4195 1.9942.9496 4.8748.9782 8.4443.013 1.7854-.1521 3.7639-.908 5.8119-.813 2.2804-2.439 3.9253-4.64 5.1227-2.0864 1.1434-5.0718 1.7528-7.7203.3205-1.2702-.6667-2.3121-1.7372-3.1056-2.9151-.5847-.8637-1.2644-2.4585-1.5278-3.6331-1.1018-5.2117.305-10.048 1.747-14.2275 1.5115-4.2114 3.5089-7.8282 5.2871-10.8584 3.5825-6.0529 6.7396-9.5339 6.7396-9.5339z" fill="#fff"/><g fill="none" stroke="#d9d9d9" stroke-linecap="round" stroke-miterlimit="10" stroke-width="4.4115"><path d="m377.8672 308.1248 21.2403 2.7817"/><path d="m377.8672 315.3273 17.5023 10.2516"/><path d="m375.3904 322.8987 9.9876 16.6788"/></g><path d="m399.8026 389.0374c4.4781-2.8202 13.9005-21.5316 16.4188-31.847 2.5152-10.3147-2.5723-25.8126-.9274-34.4512 1.6389-8.6569 11.6968-11.4008 13.1478-1.8419 2.6738 17.5941 7.222 36.5345 5.1193 46.2528-1.1115 5.157-9.7717 22.0395-18.2639 37.8553-8.7173 16.2094-19.9849-13.1608-15.4946-15.968z" fill="#db946f"/><path d="m396.068 386.9288c3.7125-2.7947 10.5593-19.8678 11.9882-29.0905 1.4329-9.2221-4.1788-22.3954-3.3911-30.0935.7902-7.7046 9.397-10.8487 11.3788-2.6042 3.6586 15.2123 9.0543 31.4528 7.9395 40.1292-.5847 4.5984-6.9073 20.0201-13.1577 34.4766-6.4247 14.8622-18.4734-10.0104-14.7577-12.8176z" fill="#db946f"/><path d="m386.6801 398.6158c3.3665-2.4136 9.8322-17.4671 11.306-25.6479 1.4737-8.1808-3.2332-20.0585-2.3662-26.8864.8735-6.8279 8.597-9.4444 10.1847-2.0643 2.9281 13.6246 7.3873 28.2014 6.2029 35.912-.6225 4.0649-6.5866 17.6701-12.465 30.4115-6.0409 13.0972-16.2379-9.3112-12.8624-11.7249z" fill="#db946f"/><path d="m357.174 504.7128 12.411-68.6987s-10.5944-25.7241-7.4153-36.6235c3.1785-10.8741 4.6933-24.8096 7.4153-29.3443 2.7245-4.5352 14.2086-18.1215 15.7358-21.7032 3.6298-8.5561 13.618 3.8426 9.0796 13.8398-4.5411 9.9721-10.5912 19.0673-9.6825 23.6025.9079 4.5352 15.1289 9.985 19.6707 7.2664 4.5379-2.7311 14.329-21.2272 17.0536-31.5043 2.7252-10.2639-3.15-26.3972-1.3333-35.0157 1.8165-8.6192 12.3251-19.8302 14.1416-2.1152 1.8166 17.7079 6.6276 37.7663 4.335 47.4587-2.4644 10.3914-36.9221 68.3814-36.9221 68.3814l2.8618 64.4561z" fill="#efaf85"/></svg>