<svg enable-background="new 0 0 512 512" viewBox="0 0 512 512" xmlns="http://www.w3.org/2000/svg"><g fill="#6ebe58"><path d="m234.0467 74.0432-10.9649-57.4089-9.1927 1.7503-9.1785 1.7527 10.974 57.4184s1.5908 14.5764-5.5903 23.6816l18.9462-3.6215 18.9438-3.6239c-10.0453-5.816-13.9376-19.9487-13.9376-19.9487z"/><path d="m240.1568 13.3689c1.0901 5.7093-9.7768 12.5867-24.287 15.3533-14.5031 2.769-27.1536.3918-28.246-5.3194-1.0806-5.6974 9.7982-12.5748 24.299-15.3556 14.5006-2.7667 27.1391-.3872 28.234 5.3217z"/><path d="m294.8276 94.9867 8.6063-57.8077-9.2546-1.3847-9.2451-1.3723-8.6086 57.8197s-3.3083 14.2727-13.1046 20.5018l19.0843 2.8332 19.0766 2.8423c-7.5496-8.813-6.5543-23.4323-6.5543-23.4323z"/><path d="m320.6298 39.7318c-.8549 5.7521-13.3893 8.6491-27.9966 6.4761-14.6097-2.173-25.7574-8.5968-24.9049-14.3484.8668-5.7521 13.3988-8.6396 28.009-6.4666 14.5978 2.1849 25.745 8.5968 24.8925 14.3389z"/><path d="m356.7891 102.7405 31.758-49.0611-7.8604-5.0824-7.8513-5.0819-31.7585 49.0706s-8.91 11.6366-20.3947 13.2374l16.1891 10.4894 16.1868 10.478c-3.2345-11.1382 3.731-24.05 3.731-24.05z"/><path d="m403.1454 63.1216c-3.1683 4.8753-15.776 2.3248-28.168-5.6998-12.3939-8.0246-19.8982-18.4783-16.7399-23.3564 3.1559-4.8872 15.776-2.3367 28.1675 5.6879 12.404 8.0221 19.8987 18.4901 16.7404 23.3683z"/><path d="m403.6533 146.4583 43.7611-38.7426-6.2057-6.9964-6.1982-7.0078-43.7702 38.7449s-11.7008 8.8134-23.2065 7.2768l12.7809 14.446 12.7814 14.4484c-.1066-11.6038 10.0572-22.1693 10.0572-22.1693z"/><path d="m458.932 120.7346c-4.3484 3.8495-15.7998-1.9902-25.6075-13.0522-9.7749-11.0525-14.187-23.1403-9.8387-26.9898 4.3574-3.8495 15.8184 1.9902 25.6051 13.0522 9.7864 11.0501 14.2085 23.1403 9.8411 26.9898z"/><path d="m413.8057 211.8042 53.4622-23.6273-3.7952-8.5634-3.7733-8.5425-53.4622 23.6368s-13.8305 4.8443-24.318-.1071l7.7847 17.6262 7.8061 17.6448c3.3958-11.0835 16.2957-18.0675 16.2957-18.0675z"/><path d="m474.2853 204.0714c-5.298 2.3582-14.4579-6.6922-20.4257-20.1976-5.9706-13.4959-6.4976-26.363-1.19-28.7092 5.3104-2.3486 14.4579 6.6922 20.4376 20.2095 5.9682 13.4939 6.4999 26.351 1.1781 28.6973z"/><path d="m438.7106 266.8972 58.4347.9739.1519-9.3427.1618-9.3641-58.4466-.952s-14.5983-1.418-22.0384-10.3161l-.3232 19.2904-.3251 19.2908c7.7442-8.6396 22.3849-9.5802 22.3849-9.5802z"/><path d="m496.8649 285.2594c-5.8183-.0971-10.328-12.1544-10.0905-26.916.2494-14.7597 5.1581-26.6528 10.9644-26.5672 5.8183.109 10.328 12.1544 10.0791 26.9256-.2494 14.7501-5.1466 26.6552-10.953 26.5576z"/><path d="m425.8959 329.5284 55.1269 19.4213 3.1131-8.8129 3.1041-8.8224-55.1383-19.4117s-13.3845-5.9682-17.6357-16.7594l-6.4119 18.1984-6.4119 18.1984c10.0786-5.7546 24.2537-2.0117 24.2537-2.0117z"/><path d="m475.2473 365.3526c-5.4694-1.9236-5.9349-14.7811-1.0382-28.7211 4.8996-13.9167 13.3231-23.6459 18.8039-21.7223 5.4836 1.9236 5.9492 14.7925 1.0401 28.7211-4.8991 13.9257-13.3226 23.6577-18.8058 21.7223z"/><path d="m375.2031 367.1809 40.9065 41.7495 6.6827-6.5428 6.6827-6.5518-40.9184-41.74s-9.385-11.2662-8.4444-22.8148l-13.7767 13.4935-13.7762 13.4963c11.5822-.7029 22.6438 8.9101 22.6438 8.9101z"/><path d="m403.7081 421.0963c-4.0775-4.1532 1.1781-15.8969 11.7223-26.2344 10.5512-10.3376 22.392-15.3533 26.4576-11.202 4.0775 4.1537-1.1872 15.8945-11.7313 26.232-10.5423 10.3376-22.3949 15.3558-26.4486 11.2044z"/><path d="m337.7453 418.2731 27.93 51.3412 8.2074-4.465 8.2193-4.4764-27.942-51.3412s-5.9468-13.3869-1.8902-24.2566l-16.9351 9.2242-16.9441 9.2141c11.3325 2.4862 19.3547 14.7597 19.3547 14.7597z"/><path d="m350.4077 477.9307c-2.7785-5.1033 5.4717-14.9663 18.4478-22.0265 12.9761-7.0626 25.7474-8.6396 28.5264-3.5363 2.769 5.1038-5.4932 14.9663-18.4692 22.0169-12.9666 7.0607-25.7361 8.6492-28.505 3.5459z"/><path d="m279.1373 437.067 9.0623 57.744 9.2451-1.4604 9.2356-1.4371-9.0623-57.7554s-1.1139-14.6097 6.369-23.4655l-19.0433 2.985-19.0628 2.9851c9.8292 6.1506 13.2564 20.4043 13.2564 20.4043z"/><path d="m271.027 497.5014c-.8978-5.7302 10.1976-12.2397 24.7835-14.5312 14.5888-2.2944 27.1536.496 28.0513 6.2505.9073 5.7302-10.1971 12.2397-24.7835 14.5312-14.5882 2.292-27.1416-.5079-28.0513-6.2505z"/><path d="m219.4579 417.5938-12.9856 56.9838 9.1147 2.0754 9.1266 2.0778 12.9761-56.9862s4.3907-13.9923 14.6311-19.4422l-18.8039-4.2822-18.8158-4.2936c6.8565 9.3546 4.7568 23.8672 4.7568 23.8672z"/><path d="m189.5282 470.7181c1.2871-5.6541 14.0043-7.6014 28.405-4.315 14.3941 3.2773 25.033 10.5327 23.7363 16.1987-1.299 5.6664-14.0138 7.59-28.4169 4.315-14.3936-3.2768-25.0234-10.5322-23.7244-16.1987z"/><path d="m158.2447 409.0276-31.4448 49.2776 7.8818 5.0276 7.8942 5.0391 31.4353-49.2867s8.8438-11.6794 20.3285-13.3654l-16.2534-10.3708-16.2629-10.3804c3.2868 11.1162-3.5787 24.059-3.5787 24.059z"/><path d="m112.1473 448.9506c3.1155-4.8872 15.745-2.4219 28.2008 5.5146 12.4463 7.9485 20.0053 18.3622 16.8684 23.2494-3.1136 4.9086-15.7426 2.4438-28.2013-5.5141-12.4462-7.9371-20.0029-18.3503-16.8679-23.2499z"/><path d="m127.8257 353.8583-46.7338 35.0997 5.6236 7.4834 5.6231 7.471 46.7343-35.1092s12.3796-7.8513 23.7244-5.3956l-11.5914-15.4223-11.5918-15.429c-.8025 11.57-11.7884 21.302-11.7884 21.302z"/><path d="m70.6567 375.0537c4.6378-3.4839 15.6027 3.2535 24.4817 15.0729 8.8676 11.7979 12.2949 24.1995 7.6447 27.6834-4.6497 3.5025-15.6051-3.2464-24.4817-15.0543-8.8675-11.8075-12.2943-24.1991-7.6447-27.702z"/><path d="m79.9137 310.8007-55.5919 18.058 2.8875 8.889 2.907 8.8867 55.5824-18.0584s14.2513-3.4054 24.1876 2.5957l-5.9582-18.3384-5.9682-18.3621c-4.5075 10.6845-18.0462 16.3295-18.0462 16.3295z"/><path d="m18.9476 312.3135c5.526-1.7955 13.712 8.1312 18.286 22.1878 4.5502 14.0376 3.7733 26.8828-1.7527 28.6783-5.5355 1.7955-13.712-8.1312-18.2741-22.1878-4.5644-14.0376-3.7857-26.8833 1.7408-28.6783z"/><path d="m72.6993 247.077-58.4447-.097-.0119 9.3422-.0209 9.3641 58.4585.0876s14.6074 1.1877 22.1878 9.9696l.0333-19.2904.0305-19.2813c-7.6133 8.7462-22.2326 9.9052-22.2326 9.9052z"/><path d="m14.276 229.6032c5.8064 0 10.4994 11.9812 10.4899 26.7523-.0333 14.7597-4.7592 26.7309-10.5655 26.719-5.8183 0-10.5113-11.9807-10.4875-26.7523.019-14.7711 4.7568-26.7404 10.5631-26.719z"/><path d="m104.037 188.4572-56.6082-14.5864-2.3253 9.0623-2.3344 9.0504 56.6087 14.5769s13.8524 4.7782 19.02 15.1586l4.8111-18.6615 4.8115-18.6873c-9.5374 6.597-23.9834 4.087-23.9834 4.087z"/><path d="m51.7653 157.0334c5.6231 1.4514 7.2025 14.2323 3.5263 28.5264-3.6977 14.2965-11.2353 24.7197-16.8589 23.2708-5.6331-1.4485-7.212-14.2204-3.5263-28.5259 3.6905-14.2966 11.2258-24.7198 16.8589-23.2713z"/><path d="m125.1657 133.5041-45.9336-36.1473-5.7754 7.3525-5.785 7.3525 45.936 36.1492s10.7579 9.9482 11.311 21.5395l11.9265-15.1605 11.9265-15.1586c-11.3872 2.1825-23.606-5.9273-23.606-5.9273z"/><path d="m89.9923 83.6991c4.5621 3.5886.8644 15.9164-8.2736 27.5196-9.1266 11.6033-20.2314 18.1009-24.7954 14.5008-4.574-3.591-.8763-15.9188 8.2617-27.5197 9.1265-11.6033 20.2433-18.1008 24.8073-14.5007z"/><path d="m180.7367 106.1696-27.909-51.3531-8.2193 4.465-8.2169 4.4764 27.909 51.3531s5.9582 13.3868 1.8688 24.2537l16.947-9.2118 16.9655-9.2142c-11.3443-2.4865-19.3451-14.7691-19.3451-14.7691z"/><path d="m168.1048 46.5121c2.769 5.0914-5.5022 14.9539-18.4783 22.0146-12.9642 7.0507-25.7479 8.6301-28.5145 3.5263-2.7785-5.1152 5.5051-14.9658 18.4783-22.017 12.9666-7.0507 25.7384-8.6396 28.5145-3.5239z"/><path d="m416.3162 229.29c-2.1968-12.7176 6.3238-24.8288 19.0528-27.0351l.3137-.0428c-1.8383-6.013-3.959-11.9169-6.3576-17.6472l-.2823.1518c-11.202 6.4333-25.4985 2.5719-31.9199-8.6301-6.4357-11.202-2.5648-25.4961 8.6277-31.9199l.2495-.1399c-3.7643-4.9848-7.7966-9.7868-12.0359-14.3727l-.1733.2066c-8.314 9.8725-23.0642 11.1477-32.9481 2.8213-9.872-8.3045-11.1377-23.0522-2.8213-32.9361l.1709-.2066c-5.2318-3.3935-10.6393-6.519-16.2177-9.3969l-.0876.2609c-4.434 12.1307-17.8518 18.3717-29.9963 13.95-12.1116-4.434-18.3598-17.8542-13.9381-29.9749l.0976-.2613c-6.0558-1.3847-12.2183-2.4653-18.4688-3.2416v.247c0 12.9118-10.4684 23.3893-23.3683 23.3893-12.9213 0-23.3898-10.4775-23.3898-23.3893v-.247c-5.8064.7126-11.5247 1.6955-17.1602 2.9398l.0971.2589c4.346 12.1545-1.9993 25.5413-14.1537 29.8868-12.1664 4.3269-25.5414-2.0088-29.8892-14.1632l-.0857-.2614c-5.6022 2.8237-11.0192 5.9278-16.2748 9.2785l.1618.2042c8.2402 9.9386 6.8679 24.6793-3.0588 32.9295-9.9386 8.2383-24.6769 6.8655-32.939-3.0731l-.1495-.1828c-4.2722 4.5526-8.3164 9.3117-12.133 14.2846l.2375.1304c11.1382 6.5095 14.902 20.8245 8.3926 31.9746-6.4995 11.1472-20.8269 14.9115-31.9765 8.4021l-.2804-.1518c-2.4438 5.7207-4.6168 11.5914-6.4999 17.5924l.3351.0547c12.6957 2.2915 21.1406 14.4674 18.8486 27.1631-2.2915 12.7171-14.446 21.1501-27.1631 18.8581l-.2804-.0423c-.1733 3.3197-.2704 6.6708-.2704 10.0334 0 2.9213.0852 5.8183.2161 8.7063l.2799-.0428c12.7171-2.2063 24.8168 6.3243 27.0232 19.0414 2.1968 12.7385-6.3362 24.8264-19.0652 27.0322l-.3013.0548c1.826 6.0225 3.9471 11.905 6.3476 17.6591l.2923-.1733c11.202-6.4238 25.4866-2.5647 31.9199 8.6277 6.4357 11.2043 2.5624 25.4985-8.6396 31.9223l-.2375.1519c3.7738 4.9943 7.7966 9.7748 12.045 14.3584l.1523-.1923c8.3164-9.8839 23.0761-11.1501 32.9481-2.8356 9.8839 8.3164 11.1472 23.0761 2.8237 32.9481l-.1518.2066c5.2218 3.3959 10.6293 6.5309 16.1982 9.3974l.1071-.2613c4.4126-12.1212 17.8419-18.3693 29.9749-13.9471 12.1331 4.4217 18.3717 17.8514 13.9495 29.9844l-.109.249c6.0558 1.3728 12.2183 2.4533 18.4688 3.2321v-.2375c0-12.9213 10.4684-23.3774 23.3898-23.3774 12.8999 0 23.3683 10.4561 23.3683 23.3774v.2375c5.8183-.7122 11.5271-1.686 17.1602-2.9304l-.0976-.2685c-4.336-12.1564 2.0116-25.5432 14.1661-29.8797 12.154-4.3341 25.5409 2.0016 29.8773 14.1775l.0976.259c5.5903-2.8332 11.0192-5.9373 16.2839-9.2998l-.1732-.1947c-8.2383-9.9362-6.8751-24.6745 3.0612-32.9152 9.9362-8.2593 24.6864-6.8774 32.9267 3.0493l.1499.1947c4.2817-4.564 8.3283-9.3208 12.1326-14.2841l-.2161-.1285c-11.1591-6.5118-14.923-20.8388-8.4116-31.977 6.5095-11.1591 20.8274-14.9206 31.9865-8.4116l.2804.1714c2.4438-5.7283 4.6164-11.6013 6.4976-17.6024l-.3232-.0666c-12.7076-2.2915-21.162-14.4436-18.87-27.1608 2.3034-12.6957 14.4674-21.1525 27.1631-18.8581l.2823.0524c.1833-3.3178.2804-6.6713.2804-10.0457 0-2.9184-.0971-5.8159-.228-8.6943l-.2589.0452c-12.7273 2.2033-24.8265-6.3387-27.0328-19.0534z"/></g><path d="m218.1826 196.3081c0 17.8423-14.4579 32.3098-32.2998 32.3098s-32.3093-14.4674-32.3093-32.3098c0-17.8419 14.4674-32.3093 32.3093-32.3093s32.2998 14.4674 32.2998 32.3093z" fill="#96cc77"/><path d="m288.5128 264.0854c0 17.8538-14.4698 32.3093-32.2997 32.3093-17.8514 0-32.3093-14.4555-32.3093-32.3093 0-17.8419 14.4579-32.3093 32.3093-32.3093 17.83.0001 32.2997 14.4675 32.2997 32.3093z" fill="#96cc77"/><path d="m194.0355 308.0527c0 17.8423-14.4674 32.3098-32.2997 32.3098-17.8514 0-32.3093-14.4674-32.3093-32.3098 0-17.8419 14.4579-32.3093 32.3093-32.3093 17.8323 0 32.2997 14.4674 32.2997 32.3093z" fill="#96cc77"/><path d="m320.8221 146.6534c0 17.8419-14.4674 32.3117-32.3093 32.3117s-32.2997-14.4698-32.2997-32.3117c0-17.8423 14.4579-32.3097 32.2997-32.3097s32.3093 14.4674 32.3093 32.3097z" fill="#96cc77"/><path d="m255.5648 87.2782c1.7741 8.7367-10.9549 18.7158-28.4502 22.264-17.4739 3.5572-33.1004-.6483-34.8721-9.3855-1.7736-8.7486 10.953-18.7087 28.4269-22.2759 17.4976-3.5454 33.1094.6483 34.8954 9.3974z" fill="#96cc77"/><path d="m405.8382 335.7361c5.8921 6.7042-.1947 21.6918-13.603 33.4565-13.4102 11.786-29.0462 15.8945-34.9383 9.1904-5.894-6.7042.2042-21.6914 13.6125-33.456 13.3988-11.7866 29.0467-15.8951 34.9288-9.1909z" fill="#96cc77"/><path d="m96.8369 224.0343c8.91-.1852 16.4452 14.1228 16.8256 31.9627.368 17.8419-6.5642 32.4611-15.4865 32.6344-8.91.1952-16.4452-14.1204-16.8256-31.9646-.3657-17.8304 6.5546-32.4378 15.4865-32.6325z" fill="#96cc77"/><path d="m151.2816 368.6513c5.3623-7.1269 21.2691-4.1965 35.5204 6.5423 14.2513 10.7364 21.4538 25.2276 16.0701 32.3426-5.3646 7.1364-21.271 4.1965-35.5104-6.5304-14.2536-10.7488-21.4542-25.2395-16.0801-32.3545z" fill="#96cc77"/><path d="m358.1495 136.1541c6.3814-6.2196 21.6609-.9097 34.1072 11.8717 12.4563 12.7719 17.3649 28.1918 10.9859 34.4209-6.4023 6.2267-21.67.9068-34.1257-11.8741-12.4588-12.7814-17.3674-28.2014-10.9674-34.4185z" fill="#96cc77"/><path d="m406.2066 256.4531c0 17.8395-14.4698 32.3093-32.3121 32.3093-17.8419 0-32.3093-14.4698-32.3093-32.3093 0-17.8423 14.4674-32.3121 32.3093-32.3121 17.8423-.0001 32.3121 14.4697 32.3121 32.3121z" fill="#96cc77"/><path d="m318.8771 365.602c0 17.8419-14.4698 32.3093-32.3116 32.3093-17.8395 0-32.3093-14.4674-32.3093-32.3093 0-17.8423 14.4698-32.3098 32.3093-32.3098 17.8418 0 32.3116 14.4675 32.3116 32.3098z" fill="#96cc77"/></svg>