<svg enable-background="new 0 0 512 512" viewBox="0 0 512 512" xmlns="http://www.w3.org/2000/svg"><g fill="#be1e2d"><path d="m159.6499 95.3228-31.7174-49.3368-7.8957 5.0753-7.8924 5.091 31.7338 49.3093s6.9524 12.9593 3.6624 24.1367l16.2684-10.4724 16.2986-10.4806c-11.5322-1.645-20.4577-13.3225-20.4577-13.3225z"/><path d="m142.5915 36.566c3.159 4.8895-4.3757 15.3668-16.8376 23.3852-12.4641 8.0047-25.12 10.5354-28.2768 5.6218-3.1563-4.884 4.3921-15.3701 16.848-23.3742 12.462-8.0184 25.126-10.5437 28.2664-5.6328z"/><path d="m224.0576 92.0076-13.6561-57.0127-9.1194 2.1917-9.1276 2.1725 13.6588 57.0455s2.2711 14.5227-4.5148 23.9757l18.8129-4.5038 18.8266-4.512c-10.3328-5.359-14.8804-19.3569-14.8804-19.3569z"/><path d="m227.359 30.9392c1.3667 5.6651-9.207 13.0601-23.6284 16.5199-14.4049 3.4357-27.1917 1.6428-28.5392-4.0223-1.3662-5.6788 9.218-13.0689 23.6284-16.5286 14.4104-3.4434 27.1922-1.6424 28.5392 4.031z"/><path d="m284.6122 76.012 11.1801-57.5648-9.2256-1.7759-9.1961-1.7874-11.1664 57.584s-3.9407 14.1507-14.0226 19.9495l18.9854 3.6871 18.9876 3.6838c-7.1655-9.1441-5.5424-23.7763-5.5424-23.7763z"/><path d="m312.9087 21.7869c-1.1098 5.717-13.7958 8.0808-28.3508 5.2472-14.5364-2.826-25.4322-9.7592-24.3279-15.4709 1.1093-5.7226 13.8144-8.0753 28.353-5.2473 14.5501 2.8069 25.4322 9.7402 24.3257 15.471z"/><path d="m344.607 99.1402 26.2106-52.4623-8.3898-4.1845-8.3897-4.1784-26.2166 52.4382s-7.5916 12.5929-18.8649 15.4709l17.3048 8.6439 17.307 8.6604c-4.4491-10.7485 1.0386-24.3882 1.0386-24.3882z"/><path d="m386.4194 54.4717c-2.6124 5.217-15.4457 4.0831-28.7112-2.5444-13.2573-6.6078-21.8848-16.2082-19.2856-21.4252 2.6124-5.2225 15.4731-4.0749 28.7304 2.5389 13.2463 6.627 21.8765 16.2137 19.2664 21.4307z"/><path d="m378.5626 156.1507 40.8834-42.0315-6.7311-6.5427-6.7141-6.5312-40.8894 42.0091s-11.0623 9.6988-22.6851 9.0131l13.8582 13.495 13.8747 13.5109c-.9893-11.6116 8.4034-22.9227 8.4034-22.9227z"/><path d="m431.9408 126.2831c-4.0585 4.1646-15.9737-.8147-26.5826-11.1445-10.6115-10.3305-15.9244-22.0979-11.8659-26.2763 4.0667-4.1784 15.9765.814 26.599 11.1445 10.606 10.3245 15.9189 22.0979 11.8495 26.2763z"/><path d="m422.3733 198.0836 54.7553-20.9969-3.3694-8.7721-3.3535-8.7507-54.7662 21.01s-14.091 4.1516-24.358-1.3415l6.9387 18.0695 6.9223 18.0777c3.9598-10.9396 17.2308-17.296 17.2308-17.296z"/><path d="m483.3623 193.3667c-5.4329 2.0821-14.1508-7.4416-19.4664-21.2538-5.3096-13.8363-5.1869-26.7573.2542-28.8262 5.4466-2.0958 14.159 7.4284 19.4719 21.2647 5.2964 13.8227 5.1896 26.738-.2597 28.8153z"/><path d="m433.9248 261.158 58.576-2.5828-.4042-9.3681-.4213-9.3763-58.576 2.5932s-14.7051-.5248-22.7016-8.9693l.8578 19.3349.8639 19.3298c7.2121-9.1143 21.8054-10.9614 21.8054-10.9614z"/><path d="m493.2771 276.0028c-5.824.2679-11.0788-11.5303-11.7268-26.3422-.6612-14.7845 3.5255-27.0058 9.3522-27.2545 5.8289-.2651 11.087 11.5406 11.7263 26.3256.6644 14.8037-3.5278 27.0195-9.3517 27.2711z"/><path d="m400.8654 315.1919 53.709 23.5216 3.7523-8.5946 3.7797-8.6001-53.7282-23.5084s-12.9675-6.9551-16.4054-18.0668l-7.7669 17.7283-7.7582 17.7195c10.5238-4.9987 24.4177-.1995 24.4177-.1995z"/><path d="m447.5782 354.6899c-5.3288-2.345-4.8506-15.2332 1.0824-28.8016 5.9604-13.5739 15.0989-22.6856 20.4414-20.349 5.3348 2.3287 4.8456 15.2497-1.1065 28.8154-5.9303 13.5548-15.0715 22.6748-20.4173 20.3352z"/><path d="m385.1436 376.7878 45.2366 37.3009 5.9631-7.2367 5.9686-7.2339-45.2289-37.3064s-10.5677-10.2423-10.8602-21.8629l-12.3031 14.9214-12.3091 14.9324c11.4726-1.9346 23.533 6.4852 23.533 6.4852z"/><path d="m419.2904 427.54c-4.4984-3.6981-.5193-15.971 8.9145-27.3971 9.4338-11.448 20.7043-17.6901 25.2027-13.998 4.5088 3.7058.5138 15.9903-8.9227 27.4301-9.4125 11.4288-20.7044 17.6762-25.1945 13.965z"/><path d="m337.6491 416.2284 30.0752 50.3364 8.0616-4.8013 8.054-4.8184-30.0779-50.3472s-6.518-13.1779-2.8671-24.2272l-16.6075 9.9072-16.6158 9.9339c11.459 2.0438 19.9775 14.0166 19.9775 14.0166z"/><path d="m352.7563 475.5121c-2.9788-5.0012 4.8862-15.2025 17.6105-22.8166 12.7271-7.5999 25.4541-9.7017 28.4412-4.7032 3.0029 5.0121-4.8949 15.2277-17.6165 22.8275-12.7075 7.5895-25.4455 9.71-28.4352 4.6923z"/><path d="m274.8206 420.4725 9.2701 57.9039 9.2613-1.4868 9.2701-1.4948-9.2755-57.8957s-1.1613-14.6508 6.3241-23.5736l-19.1136 3.0582-19.0999 3.0687c9.879 6.1275 13.3634 20.4201 13.3634 20.4201z"/><path d="m266.8708 481.1175c-.929-5.7473 10.1826-12.3091 24.817-14.6618 14.6262-2.3341 27.241.437 28.1569 6.1899.9263 5.75-10.1909 12.325-24.8253 14.6783-14.6213 2.3308-27.2306-.4377-28.1486-6.2064z"/><path d="m214.6511 435.4433-10.7918 57.6547 9.2153 1.703 9.2125 1.7381 10.8055-57.6415s3.8481-14.1892 13.902-20.0481l-19.0232-3.5748-19.0183-3.5693c7.2422 9.1199 5.698 23.7379 5.698 23.7379z"/><path d="m186.7052 489.8732c1.0742-5.7226 13.7459-8.1576 28.3069-5.4411 14.5714 2.7356 25.5056 9.5954 24.4205 15.3235-1.0654 5.7225-13.7377 8.1656-28.3201 5.4219-14.5473-2.7246-25.4761-9.568-24.4073-15.3043z"/><path d="m165.6705 395.4972-30.3458 50.1801 8.0397 4.8512 8.0376 4.8533 30.3211-50.183s8.5837-11.9509 20.0591-13.913l-16.561-9.9998-16.5637-10.0105c3.5798 11.0575-2.987 24.2217-2.987 24.2217z"/><path d="m120.417 436.6539c3.0062-4.9738 15.7278-2.8123 28.4214 4.8396 12.6695 7.6765 20.5077 17.9385 17.4933 22.9123-3.0226 4.9986-15.747 2.8261-28.4357-4.8533-12.6718-7.6386-20.5072-17.8919-17.479-22.8986z"/><path d="m104.9406 373.3774-44.9583 37.642 6.0234 7.1957 6.0288 7.1901 44.9556-37.6394s11.9859-8.5157 23.4778-6.6571l-12.4209-14.8318-12.4236-14.831c-.2022 11.6283-10.6828 21.9315-10.6828 21.9315z"/><path d="m48.7748 397.656c4.46-3.7495 15.81 2.4212 25.3227 13.7925 9.4968 11.3417 13.6046 23.6037 9.1282 27.3396-4.4819 3.7495-15.799-2.4349-25.3309-13.7925-9.4969-11.3633-13.5965-23.5901-9.12-27.3396z"/><path d="m74.3461 316.7936-54.4244 21.8163 3.4926 8.7042 3.4872 8.7151 54.4299-21.8224s14.0417-4.3641 24.3936.9625l-7.2038-17.9578-7.1956-17.9661c-3.8125 10.9918-16.9795 17.5482-16.9795 17.5482z"/><path d="m13.4311 322.4286c5.4055-2.1807 14.2652 7.2038 19.7939 20.9552 5.5013 13.7684 5.5835 26.6564.1775 28.8344-5.4137 2.173-14.2734-7.2148-19.7939-20.9689-5.5151-13.7601-5.594-26.6619-.1775-28.8207z"/><path d="m81.5362 250.5081-58.1329 7.6382 1.2133 9.2942 1.2352 9.3111 58.1362-7.6465s14.6914-.7544 23.3819 6.9743l-2.511-19.1821-2.5307-19.1875c-6.4084 9.7017-20.792 12.7983-20.792 12.7983z"/><path d="m21.1213 240.842c5.7747-.7433 12.0407 10.5513 13.9705 25.2268 1.9293 14.6891-1.192 27.2163-6.9579 27.9679-5.8021.7762-12.0549-10.5239-13.976-25.2131-1.9402-14.6892 1.1751-27.2114 6.9634-27.9816z"/><path d="m80.6154 191.4428-56.2995-16.419-2.6206 8.9962-2.6184 9.0241 56.2858 16.4081s13.7465 5.2307 18.5971 15.8094l5.4142-18.5779 5.4274-18.5806c-9.7865 6.3022-24.186 3.3397-24.186 3.3397z"/><path d="m29.2131 158.2712c5.5835 1.6263 6.7694 14.4953 2.6047 28.7167-4.1379 14.2163-12.0385 24.4265-17.6269 22.7979-5.6027-1.6428-6.7722-14.4898-2.6321-28.7063 4.1543-14.2269 12.0549-24.437 17.6543-22.8083z"/><path d="m122.0784 145.1837-45.2042-37.3256-5.9878 7.2367-5.9741 7.2422 45.2262 37.3256s10.5628 10.2204 10.817 21.8596l12.3332-14.9265 12.3113-14.9131c-11.4694 1.9237-23.5216-6.4989-23.5216-6.4989z"/><path d="m87.9644 94.4069c4.4901 3.703.4946 15.982-8.9364 27.4024-9.4311 11.429-20.7317 17.6846-25.2219 13.9652-4.4956-3.7167-.5001-15.971 8.9474-27.4217 9.4201-11.4042 20.7126-17.6708 25.2109-13.9459z"/><path d="m387.4415 171.4737c-6.8182-11.0191-3.4214-25.4755 7.5922-32.2944l.2788-.1609c-3.9544-4.9086-8.1279-9.6009-12.5331-14.0554l-.1967.2624c-8.0047 10.1852-22.7645 11.9344-32.939 3.9296-10.1909-8.0177-11.9454-22.7644-3.933-32.9416l.178-.2049c-5.3759-3.2494-10.9205-6.1981-16.5834-8.8707l-.0816.2569c-4.0284 12.2921-17.2911 18.9958-29.6079 14.9647-12.2866-4.0251-19.0013-17.2796-14.968-29.5964l.0712-.2514c-6.1296-1.1974-12.3469-2.0881-18.5916-2.6786v.2898c.4234 12.9456-9.7291 23.784-22.6884 24.2134-12.9292.4289-23.7703-9.7236-24.1964-22.6637l-.0164-.2816c-6.1461.9811-12.2817 2.2766-18.3922 3.8914l.0931.2432c4.8396 12.0303-.9756 25.6809-12.9949 30.5129-12.0084 4.8369-25.6782-.9679-30.5205-12.984l-.1013-.2432c-5.1184 2.8501-10.0758 5.9083-14.8503 9.1714l.1967.2158c8.5815 9.6716 7.6985 24.508-1.9841 33.1088-9.7044 8.5946-24.5246 7.7039-33.1192-1.9923l-.1945-.2131c-4.1346 4.7299-8.0233 9.6661-11.6556 14.7462l.2323.1286c11.3856 6.1654 15.6243 20.395 9.4804 31.797-6.1488 11.3877-20.3927 15.6292-31.7859 9.4771l-.2076-.1145c-2.2793 5.8371-4.2579 11.7838-5.9494 17.8345l.2761.0329c12.795 1.8909 21.6745 13.798 19.783 26.6235-1.8663 12.817-13.7788 21.674-26.599 19.8022l-.3194-.0438c-.1315 6.2421.0411 12.5167.5467 18.8103l.3303-.0653c12.6778-2.6403 25.0767 5.5173 27.7252 18.2006 2.6233 12.686-5.5369 25.0986-18.2147 27.7329l-.2843.0493c1.0852 3.1733 2.2547 6.3159 3.5282 9.4612 1.0873 2.7109 2.241 5.3786 3.4543 8.0047l.2295-.1342c11.0246-6.8182 25.4837-3.4159 32.2887 7.6059 6.8291 10.9998 3.4214 25.4645-7.6053 32.2833l-.2679.172c3.9626 4.9026 8.1383 9.5948 12.5326 14.0362l.2076-.2679c8.0047-10.1662 22.7569-11.9207 32.945-3.9248 10.1744 8.0184 11.9372 22.7651 3.9133 32.9423l-.1665.224c5.3808 3.2303 10.9287 6.1789 16.5883 8.8515l.0707-.2379c4.0366-12.3112 17.2994-19.0149 29.597-14.9762 12.3255 4.0367 19.021 17.2913 14.9872 29.5944l-.0849.2514c6.1433 1.2051 12.3469 2.0909 18.6053 2.6731v-.2816c-.4344-12.9347 9.7099-23.7845 22.6638-24.2079 12.9484-.4234 23.8031 9.7099 24.2129 22.661l.0164.2843c6.1494-.9949 12.2708-2.2903 18.384-3.9057l-.0981-.2295c-4.8374-12.0215.9948-25.6913 12.9998-30.5371 12.0248-4.834 25.6809.9922 30.5233 13.0088l.0931.2295c5.1321-2.8501 10.1005-5.9001 14.864-9.1577l-.1939-.2158c-8.581-9.6853-7.6957-24.5273 1.9895-33.117 9.688-8.5809 24.5246-7.7039 33.1115 1.9813l.1802.2186c4.1428-4.7306 8.0452-9.6469 11.6803-14.7544l-.246-.1205c-11.3795-6.1461-15.6374-20.3927-9.4804-31.7749 6.1598-11.4014 20.4009-15.6512 31.7859-9.4935l.2213.1282c2.2738-5.8508 4.2552-11.8112 5.9275-17.8427l-.2569-.0384c-12.8087-1.8911-21.6794-13.8034-19.8049-26.6154 1.8827-12.8032 13.787-21.6931 26.6099-19.8104l.3276.052c.1233-6.2556-.0433-12.5167-.5352-18.8156l-.3281.0707c-12.6942 2.6321-25.1096-5.5309-27.7301-18.2087-2.6293-12.6887 5.5227-25.0986 18.1977-27.7307l.2761-.046c-1.0736-3.1788-2.2355-6.3187-3.5008-9.4585-1.0901-2.7164-2.2683-5.3841-3.4707-8.024l-.224.1475c-11.0132 6.8186-25.4756 3.4164-32.2944-7.5945z"/></g><path d="m190.7061 215.0324c6.6845 16.5999-1.3557 35.4757-17.9578 42.1656-16.5938 6.6902-35.4834-1.353-42.1707-17.9577-6.6873-16.6048 1.3552-35.4806 17.9578-42.1652 16.6021-6.6845 35.4835 1.347 42.1707 17.9573z" fill="#ec1c24"/><path d="m281.5545 251.7516c6.6873 16.6101-1.3585 35.4971-17.9578 42.1816-16.602 6.6845-35.4889-1.3694-42.1679-17.9688-6.6927-16.5993 1.3475-35.4807 17.9578-42.1652 16.5965-6.679 35.4779 1.3471 42.1679 17.9524z" fill="#ff0d1f"/><path d="m210.1095 328.0745c6.6845 16.5993-1.3557 35.4724-17.9468 42.157-16.6267 6.6982-35.4998-1.3388-42.1843-17.9381-6.69-16.6185 1.3497-35.4917 17.9682-42.1767 16.5998-6.6845 35.4756 1.3448 42.1629 17.9578z" fill="#ff0d1f"/><path d="m267.6168 130.3717c6.6736 16.5938-1.3667 35.4752-17.9633 42.1515-16.6021 6.6927-35.4916-1.3448-42.1707-17.9441-6.6818-16.5994 1.3557-35.4916 17.9578-42.1761 16.5967-6.6845 35.4862 1.3579 42.1762 17.9687z" fill="#ff0d1f"/><path d="m184.6389 99.5586c4.9218 7.48-3.1864 21.5267-18.1298 31.3894-14.9406 9.8573-31.048 11.8008-35.9808 4.3209-4.9382-7.4662 3.1837-21.5079 18.1134-31.3707 14.9434-9.8709 31.0508-11.8139 35.9972-4.3396z" fill="#ff0d1f"/><path d="m417.5934 274.464c7.9718 4.0175 7.9225 20.24-.1397 36.2241-8.0562 15.9901-21.073 25.6809-29.0585 21.6471-7.9932-4.0366-7.9307-20.2639.1233-36.2404 8.0589-15.9793 21.0702-25.67 29.0749-21.6308z" fill="#ff0d1f"/><path d="m88.1665 286.3081c8.2205-3.5058 20.603 6.9853 27.637 23.4509 7.0318 16.4574 6.059 32.6519-2.1752 36.1582-8.215 3.5255-20.592-6.9799-27.6288-23.4312-7.0318-16.4573-6.0754-32.6606 2.167-36.1779z" fill="#ff0d1f"/><path d="m193.0342 400.4896c2.3231-8.6522 18.2147-11.8769 35.5025-7.2307 17.2884 4.6539 29.4113 15.4265 27.0799 24.0737-2.3116 8.6385-18.2114 11.8824-35.4943 7.2285-17.2961-4.6599-29.4189-15.4325-27.0881-24.0715z" fill="#ff0d1f"/><path d="m298.3915 106.601c3.6345-8.1822 19.8323-8.9666 36.2021-1.7436 16.3807 7.2312 26.7167 19.7288 23.1091 27.9191-3.6071 8.1821-19.8186 8.9719-36.1829 1.7436-16.3808-7.2312-26.725-19.7397-23.1283-27.9191z" fill="#ff0d1f"/><path d="m388.2232 200.5432c6.6845 16.6048-1.3771 35.4861-17.9792 42.1789-16.5971 6.6818-35.4785-1.3612-42.1657-17.9524-6.6873-16.6266 1.3503-35.5052 17.955-42.1843 16.5994-6.6846 35.4972 1.3528 42.1899 17.9578z" fill="#ff0d1f"/><path d="m347.8536 334.8303c6.6845 16.6048-1.3612 35.4861-17.9633 42.1707-16.613 6.6899-35.4916-1.3525-42.1707-17.9523-6.6927-16.5993 1.3503-35.4724 17.966-42.157 16.5967-6.6983 35.478 1.331 42.168 17.9386z" fill="#ff0d1f"/></svg>