<svg enable-background="new 0 0 512 512" viewBox="0 0 512 512" xmlns="http://www.w3.org/2000/svg"><g fill="#9258a2"><path d="m234.3426 76.6328-10.8111-56.5923-9.0552 1.7277-9.0537 1.7324 10.8171 56.5951s1.573 14.3633-5.5109 23.3437l18.6778-3.5709 18.6775-3.5694c-9.9019-5.7345-13.7415-19.6663-13.7415-19.6663z"/><path d="m240.3657 16.8212c1.0749 5.6233-9.6364 12.4061-23.9401 15.1363-14.2975 2.7321-26.7643.3876-27.8392-5.2391-1.073-5.6249 9.652-12.4026 23.948-15.1347 14.2962-2.7307 26.7583-.3874 27.8313 5.2375z"/><path d="m294.2585 97.28 8.4854-56.9903-9.1194-1.3576-9.1179-1.3589-8.4851 56.9933s-3.2647 14.0759-12.9167 20.2102l18.8059 2.7991 18.8056 2.8023c-7.4387-8.6819-6.4578-23.0981-6.4578-23.0981z"/><path d="m319.6921 42.8108c-.8388 5.6657-13.1932 8.5258-27.5953 6.381-14.3961-2.1448-25.3914-8.4788-24.5463-14.1428.8466-5.6655 13.201-8.5179 27.6047-6.3731 14.3962 2.1428 25.3851 8.4709 24.5369 14.1349z"/><path d="m355.3338 104.9216 31.3099-48.3693-7.7462-5.0065-7.7383-5.0078-31.3087 48.374s-8.7835 11.4639-20.1068 13.051l15.9595 10.3346 15.9613 10.3314c-3.1867-10.9826 3.6693-23.7074 3.6693-23.7074z"/><path d="m401.0321 65.8637c-3.1147 4.8114-15.5471 2.301-27.7672-5.6124-12.2185-7.9087-19.6087-18.2185-16.4939-23.0312 3.1085-4.8064 15.5487-2.2932 27.7687 5.6157 12.2185 7.9103 19.6087 18.2199 16.4924 23.0279z"/><path d="m401.5305 148.0177 43.1455-38.191-6.1168-6.903-6.1093-6.8995-43.1458 38.191s-11.5438 8.6882-22.875 7.1776l12.5964 14.2351 12.6042 14.2399c-.1137-11.4345 9.9008-21.8501 9.9008-21.8501z"/><path d="m456.0354 122.6573c-4.2892 3.7988-15.5847-1.9588-25.2445-12.8588-9.6442-10.9-13.9897-22.8139-9.7002-26.6115 4.2892-3.7989 15.5909 1.9622 25.243 12.8669 9.6441 10.8954 13.9975 22.8092 9.7017 26.6034z"/><path d="m411.5448 212.4341 52.698-23.2919-3.735-8.4353-3.7194-8.4272-52.7039 23.2964s-13.6353 4.7722-23.9761-.1108l7.6804 17.3906 7.6885 17.395c3.3587-10.9329 16.0675-17.8168 16.0675-17.8168z"/><path d="m471.1705 204.8157c-5.236 2.3151-14.2603-6.6011-20.1428-19.9161-5.8813-13.3106-6.4092-25.9897-1.1747-28.3001 5.2438-2.3198 14.2618 6.6043 20.1506 19.918 5.8828 13.3087 6.4092 25.9834 1.1669 28.2982z"/><path d="m436.0911 266.7486 57.6121.9559.15-9.2177.1563-9.2177-57.6199-.9528s-14.382-1.3874-21.7221-10.1567l-.3125 19.0088-.3203 19.015c7.6324-8.5133 22.0564-9.4348 22.0564-9.4348z"/><path d="m493.4189 284.8434c-5.7267-.0967-10.1783-11.9746-9.9442-26.5301.242-14.5536 5.0861-26.2849 10.8111-26.1848 5.7326.0921 10.1783 11.9731 9.9363 26.5333-.2403 14.549-5.0781 26.2771-10.8032 26.1816z"/><path d="m423.4665 328.4893 54.3396 19.1446 3.0662-8.6961 3.065-8.6992-54.3552-19.1368s-13.201-5.87-17.3891-16.5108l-6.3153 17.9339-6.3172 17.9373c9.9285-5.6609 23.906-1.9729 23.906-1.9729z"/><path d="m472.117 363.7997c-5.3985-1.8996-5.861-14.5771-1.0248-28.311 4.8284-13.7274 13.1293-23.323 18.5357-21.4174 5.4063 1.9043 5.8669 14.5821 1.0245 28.3126-4.8297 13.7273-13.1306 23.3182-18.5354 21.4158z"/><path d="m373.4928 365.5992 40.3295 41.1526 6.5858-6.4542 6.5855-6.4499-40.3357-41.1511s-9.2597-11.0985-8.3289-22.4936l-13.5774 13.3087-13.5777 13.3072c11.4158-.6967 22.3189 8.7803 22.3189 8.7803z"/><path d="m401.5881 418.7486c-4.0114-4.0897 1.1654-15.6692 11.5579-25.8585 10.4047-10.1878 22.0765-15.1348 26.088-11.0453 4.0131 4.0926-1.1732 15.6689-11.5719 25.8613-10.3906 10.1849-22.0703 15.1351-26.074 11.0425z"/><path d="m336.564 415.9632 27.533 50.6143 8.0946-4.4113 8.1009-4.4019-27.5408-50.6143s-5.8669-13.2011-1.8636-23.9119l-16.7 9.0912-16.7 9.085c11.1672 2.451 19.0759 14.5489 19.0759 14.5489z"/><path d="m349.0464 474.7673c-2.7381-5.0253 5.3985-14.7521 18.1872-21.708 12.7949-6.9559 25.3788-8.5211 28.1157-3.4914 2.7384 5.0316-5.4126 14.7537-18.2013 21.7096-12.7808 6.9606-25.3694 8.521-28.1016 3.4898z"/><path d="m278.7956 434.4911 8.9337 56.9201 9.1113-1.4309 9.1038-1.4246-8.9334-56.9264s-1.1028-14.4071 6.2812-23.1452l-18.7777 2.9491-18.7915 2.9475c9.6939 6.0596 13.0726 20.1104 13.0726 20.1104z"/><path d="m270.8012 494.0714c-.8889-5.6563 10.0503-12.078 24.4323-14.3335 14.3817-2.265 26.7643.495 27.6454 6.1575.8964 5.6581-10.0487 12.0764-24.4308 14.3304-14.3758 2.2589-26.758-.4967-27.6469-6.1544z"/><path d="m219.9684 415.2948-12.8043 56.1797 8.9835 2.0401 8.9976 2.0524 12.7946-56.1859s4.3255-13.7837 14.4181-19.1603l-18.5419-4.2253-18.5354-4.2253c6.7558 9.2208 4.6878 23.5246 4.6878 23.5246z"/><path d="m190.4578 467.6615c1.2652-5.5798 13.8056-7.49 28.0017-4.2566 14.1898 3.2318 24.6728 10.3847 23.3934 15.9704-1.2731 5.5845-13.8119 7.4903-28.0095 4.2582-14.1819-3.2334-24.6665-10.3844-23.3856-15.972z"/><path d="m159.6241 406.8564-31.0037 48.5725 7.7743 4.9564 7.7728 4.9611 30.9978-48.5754s8.7208-11.5218 20.0367-13.1794l-16.0255-10.225-16.0315-10.2346c3.2509 10.9576-3.5209 23.7244-3.5209 23.7244z"/><path d="m114.1745 446.2096c3.0803-4.8299 15.5267-2.3962 27.8032 5.4314 12.2683 7.8338 19.7242 18.0979 16.6358 22.9232-3.0787 4.8331-15.5268 2.3977-27.8032-5.4373-12.2684-7.8277-19.7227-18.0906-16.6358-22.9173z"/><path d="m129.6374 352.4592-46.0686 34.6091 5.5407 7.3683 5.5407 7.3729 46.0686-34.6138s12.2057-7.7339 23.3856-5.3159l-11.422-15.2002-11.4232-15.2068c-.797 11.4045-11.6218 20.9864-11.6218 20.9864z"/><path d="m73.2764 373.3656c4.5738-3.4379 15.3846 3.2009 24.1339 14.8445 8.7412 11.6358 12.1199 23.8669 7.5401 27.3016-4.5816 3.446-15.3849-3.2037-24.1339-14.8473-8.7415-11.6295-12.1201-23.859-7.5401-27.2988z"/><path d="m82.4034 310.0147-54.797 17.7996 2.8461 8.7697 2.8583 8.7693 54.7957-17.8061s14.0555-3.3615 23.8418 2.5524l-5.8747-18.0792-5.8751-18.092c-4.4535 10.5347-17.7951 16.0863-17.7951 16.0863z"/><path d="m22.3077 311.5157c5.4423-1.7712 13.5151 8.0182 18.0169 21.8674 4.4955 13.8369 3.7272 26.5082-1.7214 28.2719-5.4546 1.7744-13.5135-8.0226-18.0153-21.8705-4.4956-13.8352-3.7351-26.4988 1.7198-28.2688z"/><path d="m75.29 247.2026-57.6121-.0893-.0141 9.2115-.0141 9.2288 57.6262.0814s14.3958 1.1745 21.8721 9.8298l.0279-19.0118.0282-19.015c-7.5042 8.6274-21.9141 9.7646-21.9141 9.7646z"/><path d="m17.6995 229.976c5.7251.0031 10.3565 11.814 10.3411 26.3738-.0282 14.5556-4.6878 26.352-10.4207 26.3411-5.7313-.0063-10.3549-11.8168-10.333-26.3801.0204-14.5521 4.6862-26.352 10.4126-26.3348z"/><path d="m106.1876 189.417-55.8064-14.3742-2.2963 8.9287-2.2979 8.9303 55.8049 14.368s13.6572 4.705 18.7495 14.9428l4.7441-18.4077 4.7438-18.4213c-9.4018 6.5013-23.6417 4.0334-23.6417 4.0334z"/><path d="m54.6565 158.4489c5.5407 1.4215 7.098 14.0148 3.4711 28.1079-3.6351 14.1009-11.0672 24.376-16.6157 22.942-5.5548-1.4294-7.1059-14.0148-3.4711-28.1188 3.6289-14.0912 11.061-24.3651 16.6157-22.9311z"/><path d="m127.0192 135.2475-45.2843-35.6352-5.6985 7.248-5.6969 7.2477 45.2781 35.6308s10.6129 9.8082 11.1533 21.2349l11.7498-14.9444 11.7639-14.9428c-11.2235 2.1557-23.2654-5.839-23.2654-5.839z"/><path d="m92.3381 86.1486c4.4958 3.5384.8545 15.6864-8.1569 27.1269-8.9914 11.4408-19.9446 17.85-24.4402 14.3009-4.508-3.5384-.8591-15.6864 8.1447-27.1316 8.9973-11.4376 19.9506-17.845 24.4524-14.2962z"/><path d="m181.793 108.305-27.511-50.625-8.1087 4.3988-8.1009 4.4113 27.5189 50.6233s5.875 13.201 1.8432 23.906l16.7065-9.0803 16.714-9.0787c-11.1737-2.454-19.062-14.5554-19.062-14.5554z"/><path d="m169.3403 49.4934c2.7306 5.025-5.4204 14.749-18.2154 21.7018-12.7824 6.9481-25.3788 8.5053-28.1094 3.4738-2.7381-5.0359 5.4204-14.7521 18.2154-21.7048 12.7809-6.9481 25.371-8.5102 28.1094-3.4708z"/><path d="m414.0208 229.6667c-2.1698-12.5388 6.2373-24.4711 18.7774-26.6394l.3125-.0548c-1.8057-5.928-3.8975-11.7357-6.2733-17.3966l-.278.1594c-11.0312 6.3388-25.1274 2.5258-31.4583-8.5133-6.3435-11.0347-2.5321-25.1259 8.507-31.4618l.242-.1391c-3.7131-4.922-7.6823-9.6457-11.8638-14.1647l-.1719.1986c-8.1929 9.7378-22.739 10.9858-32.4753 2.7882-9.7303-8.1976-10.9814-22.7391-2.7882-32.48l.17-.1954c-5.1562-3.3458-10.4908-6.4371-15.9814-9.2676l-.092.2562c-4.3678 11.9561-17.5967 18.1152-29.5606 13.7524-11.9483-4.3643-18.1089-17.5967-13.7493-29.5528l.0936-.2561c-5.9608-1.3589-12.0341-2.4259-18.195-3.1927v.2483c0 12.7276-10.3189 23.0481-23.0434 23.0481-12.7326 0-23.0531-10.3205-23.0531-23.0481v-.2483c-5.7248.7107-11.3656 1.6745-16.9141 2.8975l.0939.2624c4.2817 11.9859-1.9713 25.1728-13.9556 29.4545-11.9918 4.2738-25.1788-1.9776-29.4604-13.9666l-.0861-.2546c-5.5187 2.7866-10.8672 5.8453-16.0456 9.1567l.1641.1985c8.1228 9.791 6.764 24.3262-3.0239 32.4518-9.7926 8.1291-24.3246 6.7749-32.4615-3.0192l-.1484-.186c-4.2112 4.4892-8.2008 9.1833-11.9574 14.0774l.2279.1312c10.9814 6.4155 14.6942 20.5301 8.2791 31.5225-6.4155 10.9922-20.5336 14.7021-31.5225 8.2867l-.278-.1609c-2.4103 5.6487-4.5582 11.4314-6.4076 17.3483l.3266.0611c12.5182 2.2572 20.8395 14.249 18.5854 26.7753-2.2619 12.5247-14.2462 20.8473-26.7787 18.5885l-.278-.0501c-.17 3.2789-.2624 6.5796-.2624 9.9007 0 2.877.0845 5.7325.2126 8.5771l.2702-.0455c12.5401-2.1694 24.468 6.2377 26.6378 18.7809 2.1682 12.5435-6.2389 24.4715-18.7855 26.644l-.3059.0501c1.8072 5.9312 3.8988 11.7389 6.2667 17.3998l.2843-.1591c11.0394-6.3406 25.1212-2.5292 31.4665 8.5101 6.3372 11.0391 2.5242 25.1287-8.5133 31.4662l-.2423.139c3.7193 4.922 7.6885 9.6411 11.8703 14.1632l.1562-.1985c8.1945-9.7362 22.7466-10.9843 32.4769-2.7882 9.7441 8.1976 10.989 22.7391 2.7882 32.4769l-.1562.1985c5.1487 3.3474 10.483 6.4371 15.9739 9.2675l.0999-.2561c4.3534-11.9558 17.5888-18.1152 29.5465-13.7525 11.9621 4.3644 18.1152 17.5936 13.7555 29.5529l-.1002.253c5.9687 1.3592 12.036 2.4259 18.2013 3.1946v-.2502c0-12.7276 10.3205-23.045 23.0531-23.045 12.7245 0 23.0434 10.3174 23.0434 23.045v.2502c5.7267-.7123 11.3594-1.6717 16.9063-2.8962l-.092-.2625c-4.2738-11.9842 1.9854-25.1759 13.9615-29.4544 11.9859-4.2767 25.1791 1.9747 29.4545 13.9666l.092.2561c5.5125-2.7913 10.869-5.8469 16.0534-9.1567l-.1719-.2001c-8.1209-9.7895-6.7699-24.3244 3.0243-32.4518 9.7942-8.1291 24.3324-6.7777 32.455 3.0196l.1562.1857c4.21-4.4924 8.2086-9.1864 11.9561-14.0786l-.2201-.1299c-10.9971-6.4152-14.7023-20.5333-8.2869-31.5222 6.4155-10.9924 20.527-14.7055 31.5241-8.2854l.2765.1594c2.4181-5.6468 4.5597-11.4345 6.4092-17.3515l-.3203-.0608c-12.5247-2.2574-20.8551-14.2462-18.5917-26.7709 2.2603-12.5263 14.2521-20.8504 26.7706-18.5933l.278.0533c.1782-3.282.2765-6.5796.2765-9.9003 0-2.8774-.0921-5.7361-.2201-8.5775l-.2624.0423c-12.5407 2.1723-24.4686-6.2376-26.6444-18.781z"/></g><path d="m218.7078 197.1585c0 17.5888-14.2524 31.8475-31.8428 31.8475-17.5888 0-31.8503-14.2587-31.8503-31.8475s14.2615-31.8503 31.8503-31.8503c17.5904-.0001 31.8428 14.2614 31.8428 31.8503z" fill="#6150a0"/><path d="m288.0353 263.9774c0 17.5904-14.2599 31.8507-31.8425 31.8507-17.5967 0-31.8522-14.2603-31.8522-31.8507 0-17.5888 14.2556-31.8488 31.8522-31.8488 17.5825 0 31.8425 14.2599 31.8425 31.8488z" fill="#6150a0"/><path d="m194.9036 307.3107c0 17.5904-14.2618 31.8504-31.8444 31.8504-17.5967 0-31.8504-14.2599-31.8504-31.8504 0-17.5842 14.2537-31.846 31.8504-31.846 17.5826 0 31.8444 14.2618 31.8444 31.846z" fill="#6150a0"/><path d="m319.8859 148.2096c0 17.5888-14.2618 31.8475-31.8506 31.8475-17.5904 0-31.8425-14.2587-31.8425-31.8475s14.2521-31.8472 31.8425-31.8472c17.5888 0 31.8506 14.2584 31.8506 31.8472z" fill="#6150a0"/><path d="m255.5521 89.6776c1.7496 8.6163-10.797 18.4464-28.0389 21.9485-17.2328 3.5068-32.6315-.6375-34.3812-9.2538-1.7496-8.6209 10.797-18.4464 28.0299-21.9562 17.2419-3.5037 32.6331.6433 34.3902 9.2615z" fill="#6150a0"/><path d="m403.6922 334.6033c5.8046 6.6074-.1982 21.3736-13.4133 32.9797-13.2151 11.6123-28.6357 15.6708-34.4388 9.063-5.8049-6.609.206-21.3814 13.4133-32.9891 13.2151-11.6076 28.6358-15.6614 34.4388-9.0536z" fill="#6150a0"/><path d="m99.0817 224.4916c8.7913-.1843 16.2175 13.9241 16.586 31.5054.3638 17.5873-6.4637 31.9972-15.2565 32.1785-8.79.1841-16.2159-13.9227-16.5863-31.51-.3701-17.5842 6.4592-31.9928 15.2568-32.1739z" fill="#6150a0"/><path d="m152.7528 367.0472c5.2921-7.0247 20.9691-4.1332 35.0168 6.4499 14.0461 10.5876 21.1457 24.8663 15.8455 31.8864-5.2842 7.0276-20.9675 4.1396-35.0152-6.4468-14.0477-10.5875-21.1458-24.8694-15.8471-31.8895z" fill="#6150a0"/><path d="m356.6789 137.8609c6.2949-6.1343 21.3517-.8967 33.6219 11.7 12.2824 12.5964 17.1201 27.7891 10.8249 33.9234-6.3012 6.1418-21.3596.9042-33.636-11.6969-12.2761-12.5996-17.1123-27.7922-10.8108-33.9265z" fill="#6150a0"/><path d="m404.0485 256.4497c0 17.5889-14.2602 31.8507-31.8506 31.8507-17.5888 0-31.8488-14.2618-31.8488-31.8507 0-17.5904 14.2599-31.8472 31.8488-31.8472 17.5904 0 31.8506 14.2568 31.8506 31.8472z" fill="#6150a0"/><path d="m317.9644 364.0418c0 17.5857-14.2599 31.846-31.8425 31.846-17.5967 0-31.8585-14.2603-31.8585-31.846 0-17.5936 14.2618-31.8503 31.8585-31.8503 17.5826-.0001 31.8425 14.2567 31.8425 31.8503z" fill="#6150a0"/></svg>